<svg width="137" height="138" viewBox="0 0 137 138" fill="none" xmlns="http://www.w3.org/2000/svg">
<path d="M5.7168 95.1982C5.7168 93.001 6.16113 91.4287 7.0498 90.4814C7.94824 89.5244 9.38379 89.0459 11.3564 89.0459C12.1182 89.0459 12.8408 89.1045 13.5244 89.2217C14.208 89.3389 14.9941 89.5439 15.8828 89.8369L14.6523 93.543C13.9297 93.3477 13.2412 93.25 12.5869 93.25C12.1475 93.25 11.8252 93.3867 11.6201 93.6602C11.4248 93.9238 11.3271 94.3584 11.3271 94.9639V95.4033H14.8574V99.6953H11.3271V112H5.59961V99.6953H3.40234V96.8828L5.7168 95.4766V95.1982ZM16.9961 91.2725C16.9961 90.4033 17.2354 89.7637 17.7139 89.3535C18.2021 88.9336 18.9688 88.7236 20.0137 88.7236C21.0684 88.7236 21.8447 88.9385 22.3428 89.3682C22.8408 89.7881 23.0898 90.4229 23.0898 91.2725C23.0898 92.9521 22.0742 93.792 20.043 93.792C18.0117 93.792 16.9961 92.9521 16.9961 91.2725ZM22.8701 112H17.1426V95.4033H22.8701V112ZM37.2549 95.1104C39.1006 95.1104 40.5312 95.6475 41.5469 96.7217C42.5625 97.7959 43.0703 99.29 43.0703 101.204V112H37.3428V102.947C37.3428 101.824 37.1816 100.989 36.8594 100.442C36.5371 99.8857 36.0293 99.6074 35.3359 99.6074C34.3594 99.6074 33.6562 99.998 33.2266 100.779C32.8066 101.551 32.5967 102.869 32.5967 104.734V112H26.8691V95.4033H31.1904L31.9082 97.4688H32.2451C33.2217 95.8965 34.8916 95.1104 37.2549 95.1104ZM62.3037 112H57.9824L56.752 109.905H56.5322C55.5557 111.497 54.0859 112.293 52.123 112.293C52.0742 112.293 52.0205 112.293 51.9619 112.293C50.2725 112.293 48.8955 111.521 47.8311 109.979C46.7666 108.436 46.2344 106.331 46.2344 103.665C46.2441 100.999 46.791 98.9141 47.875 97.4102C48.959 95.877 50.4482 95.1104 52.3428 95.1104C53.29 95.1104 54.1104 95.3008 54.8037 95.6816C55.4971 96.0625 56.127 96.6875 56.6934 97.5566H56.8105C56.625 96.2676 56.5322 94.9639 56.5322 93.6455V89.207H62.3037V112ZM57.0156 103.782C57.0156 102.337 56.8057 101.302 56.3857 100.677C55.9756 100.042 55.3164 99.7246 54.4082 99.7246C53.6562 99.7246 53.0703 100.081 52.6504 100.794C52.2402 101.497 52.0352 102.498 52.0352 103.797C52.0352 105.096 52.2451 106.082 52.665 106.756C53.085 107.43 53.7148 107.767 54.5547 107.767C55.3945 107.767 56.0049 107.488 56.3857 106.932C56.7764 106.365 56.9863 105.467 57.0156 104.236V103.782ZM67.2695 95.1982C67.2695 93.001 67.7139 91.4287 68.6025 90.4814C69.501 89.5244 70.9365 89.0459 72.9092 89.0459C73.6709 89.0459 74.3936 89.1045 75.0771 89.2217C75.7607 89.3389 76.5469 89.5439 77.4355 89.8369L76.2051 93.543C75.4824 93.3477 74.7939 93.25 74.1396 93.25C73.7002 93.25 73.3779 93.3867 73.1729 93.6602C72.9775 93.9238 72.8799 94.3584 72.8799 94.9639V95.4033H76.4102V99.6953H72.8799V112H67.1523V99.6953H64.9551V96.8828L67.2695 95.4766V95.1982ZM86.415 95.1104C87.9678 95.1104 89.3643 95.457 90.6045 96.1504C91.8447 96.8438 92.8066 97.835 93.4902 99.124C94.1738 100.413 94.5156 101.878 94.5156 103.519C94.5156 103.567 94.5156 103.616 94.5156 103.665C94.5156 106.38 93.7832 108.499 92.3184 110.022C90.8535 111.536 88.8369 112.293 86.2686 112.293C83.7002 112.293 81.6689 111.517 80.1748 109.964C78.6904 108.401 77.9482 106.287 77.9482 103.621C77.9482 100.945 78.6758 98.8652 80.1309 97.3809C81.5859 95.8672 83.6367 95.1104 86.2832 95.1104C86.3223 95.1104 86.3662 95.1104 86.415 95.1104ZM88.6855 103.68C88.6855 102.215 88.4951 101.131 88.1143 100.428C87.7334 99.7246 87.1084 99.373 86.2393 99.373C85.3701 99.373 84.7402 99.7246 84.3496 100.428C83.959 101.131 83.7637 102.215 83.7637 103.68C83.7637 105.135 83.959 106.229 84.3496 106.961C84.7402 107.684 85.3701 108.045 86.2393 108.045C87.1084 108.045 87.7334 107.684 88.1143 106.961C88.4951 106.238 88.6855 105.145 88.6855 103.68ZM105.546 95.1104C107.099 95.1104 108.495 95.457 109.735 96.1504C110.976 96.8438 111.938 97.835 112.621 99.124C113.305 100.413 113.646 101.878 113.646 103.519C113.646 103.567 113.646 103.616 113.646 103.665C113.646 106.38 112.914 108.499 111.449 110.022C109.984 111.536 107.968 112.293 105.399 112.293C102.831 112.293 100.8 111.517 99.3057 109.964C97.8213 108.401 97.0791 106.287 97.0791 103.621C97.0791 100.945 97.8066 98.8652 99.2617 97.3809C100.717 95.8672 102.768 95.1104 105.414 95.1104C105.453 95.1104 105.497 95.1104 105.546 95.1104ZM107.816 103.68C107.816 102.215 107.626 101.131 107.245 100.428C106.864 99.7246 106.239 99.373 105.37 99.373C104.501 99.373 103.871 99.7246 103.48 100.428C103.09 101.131 102.895 102.215 102.895 103.68C102.895 105.135 103.09 106.229 103.48 106.961C103.871 107.684 104.501 108.045 105.37 108.045C106.239 108.045 106.864 107.684 107.245 106.961C107.626 106.238 107.816 105.145 107.816 103.68ZM132.265 112H127.943L126.713 109.905H126.493C125.517 111.497 124.047 112.293 122.084 112.293C122.035 112.293 121.981 112.293 121.923 112.293C120.233 112.293 118.856 111.521 117.792 109.979C116.728 108.436 116.195 106.331 116.195 103.665C116.205 100.999 116.752 98.9141 117.836 97.4102C118.92 95.877 120.409 95.1104 122.304 95.1104C123.251 95.1104 124.071 95.3008 124.765 95.6816C125.458 96.0625 126.088 96.6875 126.654 97.5566H126.771C126.586 96.2676 126.493 94.9639 126.493 93.6455V89.207H132.265V112ZM126.977 103.782C126.977 102.337 126.767 101.302 126.347 100.677C125.937 100.042 125.277 99.7246 124.369 99.7246C123.617 99.7246 123.031 100.081 122.611 100.794C122.201 101.497 121.996 102.498 121.996 103.797C121.996 105.096 122.206 106.082 122.626 106.756C123.046 107.43 123.676 107.767 124.516 107.767C125.355 107.767 125.966 107.488 126.347 106.932C126.737 106.365 126.947 105.467 126.977 104.236V103.782Z" fill="#3B5B33"/>
<path d="M16.5938 128.086C16.5938 127.297 16.7383 126.723 17.0273 126.363C17.3164 126 17.7852 125.818 18.4336 125.818C18.7852 125.818 19.1367 125.871 19.4883 125.977L19.3535 126.48C19.0488 126.383 18.7383 126.334 18.4219 126.334C17.9727 126.334 17.6523 126.469 17.4609 126.738C17.2695 127.004 17.1738 127.438 17.1738 128.039V128.631H18.6738V129.135H17.1738V135H16.5938V129.135H15.4102V128.795L16.5938 128.578V128.086ZM19.5293 131.807C19.5293 130.771 19.7812 129.963 20.2852 129.381C20.7891 128.799 21.4785 128.508 22.3535 128.508C23.2324 128.508 23.9199 128.803 24.416 129.393C24.916 129.982 25.166 130.793 25.166 131.824C25.166 132.852 24.9141 133.658 24.4102 134.244C23.9062 134.826 23.2109 135.117 22.3242 135.117C22.3047 135.117 22.2832 135.117 22.2598 135.117C21.4512 135.117 20.793 134.818 20.2852 134.221C19.7812 133.623 19.5293 132.848 19.5293 131.895C19.5293 131.863 19.5293 131.834 19.5293 131.807ZM22.3477 134.59C23.0508 134.59 23.5938 134.346 23.9766 133.857C24.3594 133.369 24.5508 132.686 24.5508 131.807C24.5508 130.924 24.3555 130.242 23.9648 129.762C23.5781 129.277 23.0332 129.035 22.3301 129.035C21.6309 129.035 21.0898 129.277 20.707 129.762C20.3281 130.242 20.1387 130.922 20.1387 131.801C20.1387 132.676 20.3301 133.361 20.7129 133.857C21.0996 134.346 21.6445 134.59 22.3477 134.59ZM26.5605 131.807C26.5605 130.771 26.8125 129.963 27.3164 129.381C27.8203 128.799 28.5098 128.508 29.3848 128.508C30.2637 128.508 30.9512 128.803 31.4473 129.393C31.9473 129.982 32.1973 130.793 32.1973 131.824C32.1973 132.852 31.9453 133.658 31.4414 134.244C30.9375 134.826 30.2422 135.117 29.3555 135.117C29.3359 135.117 29.3145 135.117 29.291 135.117C28.4824 135.117 27.8242 134.818 27.3164 134.221C26.8125 133.623 26.5605 132.848 26.5605 131.895C26.5605 131.863 26.5605 131.834 26.5605 131.807ZM29.3789 134.59C30.082 134.59 30.625 134.346 31.0078 133.857C31.3906 133.369 31.582 132.686 31.582 131.807C31.582 130.924 31.3867 130.242 30.9961 129.762C30.6094 129.277 30.0645 129.035 29.3613 129.035C28.6621 129.035 28.1211 129.277 27.7383 129.762C27.3594 130.242 27.1699 130.922 27.1699 131.801C27.1699 132.676 27.3613 133.361 27.7441 133.857C28.1309 134.346 28.6758 134.59 29.3789 134.59ZM38.9707 135H38.584L38.4434 134.027H38.3965C37.9121 134.754 37.2227 135.117 36.3281 135.117C35.4375 135.117 34.7598 134.844 34.2949 134.297C33.8301 133.746 33.5977 132.936 33.5977 131.865C33.5977 130.791 33.8281 129.963 34.2891 129.381C34.75 128.799 35.4199 128.508 36.2988 128.508C36.7676 128.508 37.168 128.594 37.5 128.766C37.8359 128.938 38.1348 129.223 38.3965 129.621H38.4316C38.4082 129.129 38.3965 128.646 38.3965 128.174V125.883H38.9707V135ZM38.3965 131.906V131.807C38.3965 130.818 38.2305 130.109 37.8984 129.68C37.5664 129.25 37.043 129.035 36.3281 129.035C35.6172 129.035 35.0859 129.279 34.7344 129.768C34.3828 130.252 34.207 130.961 34.207 131.895C34.207 133.699 34.9082 134.602 36.3105 134.602C37.0293 134.602 37.5566 134.393 37.8926 133.975C38.2285 133.557 38.3965 132.867 38.3965 131.906ZM44.8477 128.631H46.7168V129.135H44.8477V133.166C44.8477 133.654 44.9336 134.016 45.1055 134.25C45.2773 134.484 45.5488 134.602 45.9199 134.602C46.291 134.602 46.6094 134.57 46.875 134.508V134.977C46.5938 135.07 46.2695 135.117 45.9023 135.117C45.3398 135.117 44.9238 134.967 44.6543 134.666C44.3887 134.365 44.2559 133.893 44.2559 133.248V129.135H43.3125V128.795L44.2559 128.531L44.5488 127.09H44.8477V128.631ZM50.7598 128.508C51.0176 128.508 51.3066 128.535 51.627 128.59L51.5156 129.152C51.2539 129.082 50.9785 129.047 50.6895 129.047C50.1465 129.047 49.7012 129.279 49.3535 129.744C49.0059 130.205 48.832 130.785 48.832 131.484V135H48.252V128.631H48.7441L48.8027 129.779H48.8438C49.1133 129.303 49.3926 128.975 49.6816 128.795C49.9785 128.604 50.3379 128.508 50.7598 128.508ZM57.873 135H57.3809L57.2754 134.121H57.2402C56.8223 134.785 56.0859 135.117 55.0312 135.117C53.582 135.117 52.8574 134.342 52.8574 132.791V128.631H53.4316V132.756C53.4316 133.393 53.5645 133.857 53.8301 134.15C54.0996 134.443 54.5195 134.59 55.0898 134.59C55.8438 134.59 56.4004 134.398 56.7598 134.016C57.1191 133.633 57.2988 133.01 57.2988 132.146V128.631H57.873V135ZM62.5488 135.117C61.6387 135.117 60.9258 134.83 60.4102 134.256C59.8945 133.682 59.6367 132.875 59.6367 131.836C59.6367 130.797 59.9023 129.982 60.4336 129.393C60.9688 128.803 61.7031 128.508 62.6367 128.508C63.1914 128.508 63.7188 128.604 64.2188 128.795L64.0605 129.316C63.5098 129.129 63.0312 129.035 62.625 129.035C61.8477 129.035 61.2559 129.275 60.8496 129.756C60.4473 130.236 60.2461 130.92 60.2461 131.807C60.2461 132.693 60.4473 133.379 60.8496 133.863C61.252 134.348 61.8145 134.59 62.5371 134.59C63.1074 134.59 63.6445 134.486 64.1484 134.279V134.818C63.7461 135.018 63.2129 135.117 62.5488 135.117ZM66.2812 135H65.7012V125.883H66.2812V130.453L66.2402 132.205H66.2695L69.5215 128.631H70.2246L67.7168 131.35L70.4355 135H69.7441L67.3242 131.783L66.2812 132.732V135ZM70.9277 134.098C71.5527 134.418 72.2012 134.578 72.873 134.578C73.5449 134.578 74.0469 134.477 74.3789 134.273C74.7109 134.066 74.877 133.793 74.877 133.453C74.877 133.113 74.7461 132.836 74.4844 132.621C74.2227 132.402 73.7871 132.186 73.1777 131.971C72.5684 131.752 72.1309 131.557 71.8652 131.385C71.5996 131.213 71.4023 131.021 71.2734 130.811C71.1484 130.6 71.0859 130.348 71.0859 130.055C71.0859 129.582 71.2852 129.205 71.6836 128.924C72.0898 128.646 72.6426 128.508 73.3418 128.508C74.0449 128.508 74.7051 128.637 75.3223 128.895L75.1055 129.422C74.4648 129.164 73.8848 129.035 73.3652 129.035C72.8457 129.035 72.4336 129.121 72.1289 129.293C71.8242 129.465 71.6719 129.711 71.6719 130.031C71.6719 130.348 71.7891 130.605 72.0234 130.805C72.2617 131.004 72.6953 131.217 73.3242 131.443C73.9531 131.666 74.4004 131.863 74.666 132.035C75.1895 132.363 75.4512 132.807 75.4512 133.365C75.4512 133.92 75.2344 134.352 74.8008 134.66C74.3672 134.965 73.7363 135.117 72.9082 135.117C72.084 135.117 71.4238 134.986 70.9277 134.725V134.098ZM77.7539 133.605L77.8242 133.729C77.5312 134.76 77.1914 135.699 76.8047 136.547H76.4238C76.7246 135.465 76.9395 134.484 77.0684 133.605H77.7539ZM83.0742 128.086C83.0742 127.297 83.2188 126.723 83.5078 126.363C83.7969 126 84.2656 125.818 84.9141 125.818C85.2656 125.818 85.6172 125.871 85.9688 125.977L85.834 126.48C85.5293 126.383 85.2188 126.334 84.9023 126.334C84.4531 126.334 84.1328 126.469 83.9414 126.738C83.75 127.004 83.6543 127.438 83.6543 128.039V128.631H85.1543V129.135H83.6543V135H83.0742V129.135H81.8906V128.795L83.0742 128.578V128.086ZM86.0098 131.807C86.0098 130.771 86.2617 129.963 86.7656 129.381C87.2695 128.799 87.959 128.508 88.834 128.508C89.7129 128.508 90.4004 128.803 90.8965 129.393C91.3965 129.982 91.6465 130.793 91.6465 131.824C91.6465 132.852 91.3945 133.658 90.8906 134.244C90.3867 134.826 89.6914 135.117 88.8047 135.117C88.7852 135.117 88.7637 135.117 88.7402 135.117C87.9316 135.117 87.2734 134.818 86.7656 134.221C86.2617 133.623 86.0098 132.848 86.0098 131.895C86.0098 131.863 86.0098 131.834 86.0098 131.807ZM88.8281 134.59C89.5312 134.59 90.0742 134.346 90.457 133.857C90.8398 133.369 91.0312 132.686 91.0312 131.807C91.0312 130.924 90.8359 130.242 90.4453 129.762C90.0586 129.277 89.5137 129.035 88.8105 129.035C88.1113 129.035 87.5703 129.277 87.1875 129.762C86.8086 130.242 86.6191 130.922 86.6191 131.801C86.6191 132.676 86.8105 133.361 87.1934 133.857C87.5801 134.346 88.125 134.59 88.8281 134.59ZM95.9238 128.508C96.1816 128.508 96.4707 128.535 96.791 128.59L96.6797 129.152C96.418 129.082 96.1426 129.047 95.8535 129.047C95.3105 129.047 94.8652 129.279 94.5176 129.744C94.1699 130.205 93.9961 130.785 93.9961 131.484V135H93.416V128.631H93.9082L93.9668 129.779H94.0078C94.2773 129.303 94.5566 128.975 94.8457 128.795C95.1426 128.604 95.502 128.508 95.9238 128.508ZM100.91 137.883C100.688 137.883 100.439 137.842 100.166 137.76V137.256C100.389 137.318 100.633 137.35 100.898 137.35C101.289 137.35 101.602 137.156 101.836 136.77C101.965 136.566 102.107 136.254 102.264 135.832L102.58 135L100.143 128.631H100.74L102.088 132.205C102.486 133.271 102.746 134.014 102.867 134.432H102.902C103.043 133.994 103.311 133.24 103.705 132.17L105.053 128.631H105.65L102.797 136.031C102.57 136.629 102.377 137.035 102.217 137.25C101.904 137.672 101.469 137.883 100.91 137.883ZM106.342 131.807C106.342 130.771 106.594 129.963 107.098 129.381C107.602 128.799 108.291 128.508 109.166 128.508C110.045 128.508 110.732 128.803 111.229 129.393C111.729 129.982 111.979 130.793 111.979 131.824C111.979 132.852 111.727 133.658 111.223 134.244C110.719 134.826 110.023 135.117 109.137 135.117C109.117 135.117 109.096 135.117 109.072 135.117C108.264 135.117 107.605 134.818 107.098 134.221C106.594 133.623 106.342 132.848 106.342 131.895C106.342 131.863 106.342 131.834 106.342 131.807ZM109.16 134.59C109.863 134.59 110.406 134.346 110.789 133.857C111.172 133.369 111.363 132.686 111.363 131.807C111.363 130.924 111.168 130.242 110.777 129.762C110.391 129.277 109.846 129.035 109.143 129.035C108.443 129.035 107.902 129.277 107.52 129.762C107.141 130.242 106.951 130.922 106.951 131.801C106.951 132.676 107.143 133.361 107.525 133.857C107.912 134.346 108.457 134.59 109.16 134.59ZM118.693 135H118.201L118.096 134.121H118.061C117.643 134.785 116.906 135.117 115.852 135.117C114.402 135.117 113.678 134.342 113.678 132.791V128.631H114.252V132.756C114.252 133.393 114.385 133.857 114.65 134.15C114.92 134.443 115.34 134.59 115.91 134.59C116.664 134.59 117.221 134.398 117.58 134.016C117.939 133.633 118.119 133.01 118.119 132.146V128.631H118.693V135Z" fill="#3B5B33"/>
<circle cx="68" cy="40" r="40" fill="#3B5B33"/>
<rect x="53" y="24" width="40" height="26" fill="#FFFEE5"/>
<rect x="44" y="34" width="11" height="14" fill="#FFFEE5"/>
<circle cx="57.5" cy="50.5" r="5.5" fill="#FFFEE5"/>
<ellipse cx="74" cy="50.5" rx="6" ry="5.5" fill="#FFFEE5"/>
<ellipse cx="87" cy="50.5" rx="6" ry="5.5" fill="#FFFEE5"/>
<rect x="47" y="37" width="4" height="4" fill="#3B5B33"/>
<rect x="54" y="25" width="38" height="1" fill="#3B5B33"/>
</svg>
